<?xml version="1.0" encoding="utf-8"?>
<!-- Generator: Adobe Illustrator 25.4.1, SVG Export Plug-In . SVG Version: 6.00 Build 0)  -->
<svg version="1.1" id="Layer_1" xmlns="http://www.w3.org/2000/svg" xmlns:xlink="http://www.w3.org/1999/xlink" x="0px" y="0px"
	 viewBox="0 0 3029 488" style="enable-background:new 0 0 3029 488;" xml:space="preserve">
<style type="text/css">
	.st0{fill:#FFFFFF;}
</style>
<g>
	<g>
		<path class="st0" d="M32.6,240.7c0.2-9.5,0.7-19.9,2.5-30.2c1.7-9.6,4.2-19,7.4-28.3c9.1-26.6,22.1-51,40-72.8
			c21.1-25.6,46.5-45.5,77-58.9c15.3-6.7,31.2-11.4,47.7-14c9.1-1.4,7.4-1.9,12.2,5c34.7,49.5,69.4,99,104.1,148.5
			c4.2,6,8,12.1,10.8,18.9c3.4,8.1,5.5,16.5,6.4,25.3c2.4,23-3.7,43.6-17.2,62.1c-4.6,6.3-10,11.7-16.1,16.4
			c-3.1,2.4-6.4,4.7-9.7,6.8c-4.4,2.9-9.4,4.5-14.7,4.7c-8.8,0.3-16.3-2.8-22.4-9.1c-2.9-3-5.3-6.4-7.2-10.1
			c-3.9-7.3-3.8-14.7-0.2-22.1c1-2.1,2.4-3.9,4.4-5.1c1.2-0.8,2.5-1.6,3.6-2.4c6.7-4.9,11.5-11.3,14.2-19.2c1.7-5,2.6-10,2.7-15.3
			c0.1-7.7-1.9-14.8-5.8-21.4c-1-1.6-2-3.1-3.1-4.7c-24.1-34.4-48.2-68.7-72.2-103.1c-0.8-1.2-1.7-2.4-2.6-3.5
			c-0.5-0.6-1.4-1-2.2-0.7c-1.8,0.6-3.5,1.3-5.2,2c-13,5.7-25,13.2-36.1,21.9c-12.2,9.6-22.8,20.6-31.8,33.2
			c-10.8,15.3-18.1,32.2-21.5,50.6c-1.8,9.6-2.4,19.4-2.2,29.2c0.7,33.5,12.4,62.9,33.2,88.7c12.7,15.8,28.5,27.8,46.6,36.8
			c2.2,1.1,4.5,2.2,6.8,3.2c2.8,1.2,5,3,6.5,5.5c0.3,0.5,0.7,1,1.1,1.5c9.2,12.9,18.3,25.7,27.4,38.6c1.4,2,2.9,4.1,4,6.3
			c2,3.8,2.5,7.9,1.7,12.1c-1.7,9.3-10,14.8-18.6,13.6c-4.1-0.6-8.2-1.5-12.2-2.6c-42.3-10.8-77.7-33-106.5-65.7
			c-24.2-27.6-40-59.5-48-95.3C34.1,272.3,32.7,257,32.6,240.7z"/>
		<path class="st0" d="M445.3,243.6c0,10.6-0.5,19.7-1.7,28.8c-0.8,5.8-2.2,11.4-3.7,17c-7.5,27.7-19.4,53.4-36.4,76.7
			c-12.5,17-27,32.1-43.8,44.9c-25.8,19.6-54.7,32-86.5,37.8c-2.7,0.5-5.3,0.8-8,1.1c-1.3,0.2-2.4-0.3-3.2-1.4c-1-1.3-2-2.7-2.9-4
			c-34.9-49.8-69.8-99.7-104.8-149.5c-0.4-0.5-0.7-1-1.1-1.5c-9.1-12.8-14.5-27-15.8-42.7c-1.4-15.6,0.8-30.7,7.5-44.9
			c6.7-14.2,16.1-26.1,29-35.2c2-1.4,4-2.9,6.1-4.3c13.8-9.1,31.1-5.1,39.9,7.1c1.7,2.4,3.4,4.7,4.7,7.3c3.4,6.4,3.5,13.1,1.1,19.9
			c-1,2.9-2.7,5.1-5.5,6.4c-0.7,0.4-1.5,0.8-2.2,1.2c-13.9,8-20.3,20.3-20.4,36.1c0,6.2,1.6,11.9,4.6,17.3c1.3,2.4,2.9,4.6,4.4,6.8
			c3,4.2,6.2,8.4,9.2,12.6c21.2,30.3,42.5,60.5,63.7,90.8c1.1,1.5,2.1,3.1,3.2,4.6c1.4,2,2.4,2.2,4.8,1.2c1.3-0.5,2.7-1.1,4-1.7
			c18.6-8.3,35-19.8,49.6-34c6.4-6.2,12.2-13,17.4-20.3c10-14.1,17.1-29.4,20.8-46.3c3.4-15.3,4.2-30.8,2.4-46.4
			c-1.6-14.3-5-28.2-10.9-41.4c-15.1-33.5-38.9-58.5-72.5-74c-0.9-0.4-1.9-0.9-2.8-1.3c-2.4-1-4.2-2.6-5.7-4.7c-0.5-0.7-1-1.4-1.4-2
			c-9.3-13-18.6-26.1-27.8-39.1c-1.3-1.9-2.6-3.7-3.7-5.8c-2.4-4.6-3-9.4-1.3-14.5c2.6-7.6,9.3-12.1,17.3-11.4
			c4.1,0.4,8.2,1.3,12.2,2.3c46.9,12.1,85.3,37.2,115,75.4c20.4,26.2,33.9,55.6,40.7,88C444.2,215.2,445.6,230,445.3,243.6z"/>
		<path class="st0" d="M2168.4,413.4c-1.7,0.1-3.4,0.2-5,0.2c-20.4,0-40.7-0.1-61.1-0.2c-1.7,0-3.8,0.7-5.2-1.1
			c-0.2-1.9,1.2-3,2-4.4c32.8-50.8,65.7-101.5,98.5-152.3c1.2-1.9,2.5-3.8,3.7-5.8c0.5-0.9,0.9-1.8,1.3-2.6
			c-0.7-2.5-2.2-4.3-3.4-6.2c-14.2-22.3-28.4-44.5-42.6-66.7c-16.4-25.7-32.9-51.5-49.2-77.2c-1.2-1.8-3.3-3.3-2.7-6
			c1.9-1.1,4-0.6,6-0.6c20.6,0,41.1,0.1,61.7,0.1c1.9,0,3.7,0.1,5.4,0.1c2.2,1.8,3.2,4.2,4.5,6.3c8.2,13.7,16.4,27.5,24.6,41.2
			c12.2,20.5,24.4,41,36.7,61.6c1.1,1.8,2.2,3.5,3.4,5.2c0.4,0.6,1.7,0.6,2.2-0.1c0.9-1.4,1.8-2.8,2.7-4.2
			c20.2-34.1,40.3-68.3,60.6-102.4c5.3-8.9,2.8-7.2,13.1-7.3c18.7,0,37.4,0.1,56.1,0.1c1.9,0,3.7,0,5.6,0.1c1.7,0,2.3,1.1,1.5,2.4
			c-1,1.6-2,3.2-3,4.7c-16.5,25.9-33,51.9-49.5,77.8c-14.4,22.6-28.8,45.2-43.2,67.8c-1.2,1.9-2.4,3.9-3.5,5.9
			c-0.4,0.8-0.5,1.6,0,2.4c1.1,1.8,2.2,3.5,3.4,5.2c28,42,56,84,84,126c5.5,8.3,11.1,16.6,16.6,24.9c0.8,1.2,1.6,2.4,2.3,3.7
			c0.4,0.6-0.2,1.9-0.9,1.9c-1.4,0.1-2.9,0.2-4.3,0.2c-22.2,0-44.5-0.1-66.7-0.2c-1.4,0-2.9-0.2-4.1-0.3c-1.8-1.8-2.9-3.8-4.1-5.8
			c-22.5-36.7-44.9-73.3-67.4-110c-0.9-1.4-1.8-2.8-2.7-4.2c-0.6-1-2-1-2.6,0c-1.4,2.1-2.7,4.2-4.1,6.3c-21.6,35-43.3,70-64.9,104.9
			c-1.2,1.9-2.4,3.9-3.7,5.8C2169.8,411.8,2169.1,412.6,2168.4,413.4z"/>
		<path class="st0" d="M1900.3,251c0.1-51.1,0.2-102.2,0.4-153.3c0-1.5,0-2.9,0-4.4c0.1-2.5,1.1-3.1,2.9-3.2c1.5-0.1,2.9,0,4.4,0
			c57.1,0.1,114.3,0.3,171.4,0.4c1.2,0,2.5,0,3.7,0c2.9,0.1,3.5,0.6,3.7,3.7c0.1,1.9,0.2,3.7,0.3,5.6c0.2,13.7,0,27.4-0.6,41.1
			c-0.1,1.2-0.2,2.5-0.4,3.7c-0.1,0.5-0.7,1-1.2,1.3c-0.5,0.3-1.2,0.4-1.8,0.4c-1.9,0.1-3.7,0.1-5.6,0.1c-33-0.1-66.1-0.2-99.1-0.2
			c-2.5,0-5,0.1-7.5,0.2c-0.7,0-1.6,0.9-1.7,1.6c-0.1,1.7-0.3,3.3-0.3,5c-0.1,8.9-0.1,17.9-0.1,26.8c0,10-0.1,19.9-0.1,29.9
			c0,1.7,0,3.3,0.1,5c0.1,1.6,1.1,2.6,2.9,2.6c2.1,0.1,4.2,0.1,6.2,0.1c31,0.1,61.9,0.2,92.9,0.3c1.9,0,3.7,0.1,5.6,0.2
			c0.8,0,1.6,0.8,1.7,1.6c0.1,0.8,0.3,1.6,0.3,2.5c-0.1,15.6-0.1,31.2-0.2,46.7c0,1-0.2,2.1-0.4,3.1c-0.1,0.7-1,1.5-1.7,1.6
			c-0.6,0.1-1.2,0.2-1.8,0.2c-1.9,0-3.7,0-5.6,0c-30.3-0.1-60.7-0.2-91-0.2c-2.3,0-4.6,0.1-6.8,0.2c-1,0-1.9,1-2,2
			c-0.1,1.2-0.2,2.5-0.2,3.7c-0.1,24.1-0.1,48.2-0.2,72.3c0,0.2,0,0.4,0,0.6c0.1,4,0.7,4.6,4.7,4.7c1.5,0,2.9,0,4.4,0
			c32.6,0.1,65.2,0.2,97.8,0.3c2.9,0,5.8,0.1,8.7,0.3c0.7,0,1.7,0.8,1.7,1.5c0.2,1.4,0.4,2.9,0.4,4.3c0,12,0,24.1,0,36.1
			c0,3.3-0.1,6.6-0.1,10c0,0.8-0.2,1.7-0.5,2.4c-0.2,0.5-0.7,1-1.2,1.3c-0.5,0.3-1.2,0.3-1.8,0.3c-1.9,0-3.7,0.1-5.6,0
			c-55.7-0.1-111.3-0.3-167-0.4c-2.5,0-5-0.1-7.5-0.1c-1.2,0-2.3-1.2-2.3-2.5c-0.1-1.9-0.1-3.7-0.1-5.6
			C1900,353.7,1900.1,302.4,1900.3,251z"/>
		<path class="st0" d="M796.3,149.1c-0.6,1.1-1.4,1.6-2.5,1.9c-7.7,2.5-15.4,4.9-23.1,7.4c-7.3,2.3-14.6,4.7-22,7
			c-2,0.6-2.8,0.4-3.7-1.2c-4-7.7-10.4-12.8-17.7-17c-8.9-5.1-18.4-8.6-28.3-11.1c-12.8-3.2-25.9-3.9-39-2.5
			c-21.4,2.3-40.5,10.5-56.8,24.7c-12.7,11-21.5,24.7-27.1,40.4c-3.6,10-5.8,20.3-6.7,30.9c-1.6,18.1,0.5,35.7,6.6,52.7
			c6.8,19,17.8,35.1,33.1,48.2c14.4,12.3,31.1,19.8,49.7,23.1c9.4,1.7,19,1.8,28.6,0.9c10.2-1,20.1-2.9,29.9-6
			c16.4-5.2,31.2-13.4,44.7-24.1c3.6-2.8,6.9-5.9,10.4-8.9c0.6-0.5,1.3-1,2-1.4c0.3-0.2,0.9-0.1,1.1,0.1c0.9,0.9,1.8,1.7,2.5,2.7
			c8.5,11.3,16.9,22.6,25.3,34c0.7,1,1.4,2,2.1,3.1c0.5,0.7,0.4,1.7-0.1,2.3c-0.7,0.8-1.3,1.6-2,2.3c-6.5,6.5-13.6,12.3-21.1,17.5
			c-20.9,14.6-43.7,24.7-68.6,29.9c-15.5,3.3-31.2,4.6-47.1,3.8c-17.3-0.9-34.3-3.5-50.7-9.3c-45.1-16-77.4-45.8-96-90.1
			c-5.7-13.5-9.4-27.5-11.4-41.9c-1.5-10.7-2.4-21.5-2-32.3c1.2-33.9,10.9-65,31-92.5c19.1-26.1,44.1-44.3,74.3-55.5
			c12.1-4.5,24.6-7.4,37.5-9c14.3-1.8,28.6-1.9,42.9-0.7c15.6,1.3,30.8,4.3,45.5,9.9c10.8,4.1,20.8,9.4,29.8,16.6
			c11.6,9.2,20.3,20.7,25.8,34.5c0.9,2.3,1.8,4.6,2.6,7C796,147.5,796.2,148.4,796.3,149.1z"/>
		<path class="st0" d="M1450.9,250c0.1-51.3,0.3-102.7,0.4-154c0-1.2,0-2.5,0-3.7c0.1-2.2,0.9-3.1,3-3.1c1.5,0,2.9,0,4.4,0
			c56.7,0.1,113.5,0.3,170.2,0.4c1.9,0,3.7,0.1,5.6,0.2c0.7,0,1.6,0.9,1.7,1.6c0.1,0.8,0.3,1.6,0.3,2.5c-0.1,15.8-0.2,31.6-0.3,47.4
			c0,0.8-0.1,1.7-0.3,2.4c-0.2,0.5-0.7,1-1.2,1.3c-0.5,0.3-1.2,0.4-1.8,0.4c-1.9,0.1-3.7,0.1-5.6,0.1c-33.7-0.1-67.3-0.1-101-0.2
			c-1.7,0-3.3,0-5,0c-1.7,0.1-2.6,1-2.7,2.8c-0.1,1.7-0.1,3.3-0.1,5c-0.1,22.6-0.1,45.3-0.2,67.9c0,1.7,0,3.3,0.1,5
			c0.1,1.6,0.8,2.6,2.8,2.7c2.1,0.1,4.2,0.1,6.2,0.1c22.9,0.1,45.7,0.1,68.6,0.2c7.9,0,15.8,0,23.7,0.1c1.9,0,3.7,0,5.6,0.1
			c1.6,0.1,2.6,1,2.7,2.8c0.1,1.9,0.1,3.7,0.1,5.6c0,12.9-0.1,25.8-0.1,38.7c0,1.7,0,3.3-0.1,5c0,0.6-0.1,1.3-0.3,1.8
			c-0.3,0.5-0.7,1.1-1.2,1.3c-0.7,0.3-1.6,0.4-2.4,0.5c-2.1,0.1-4.2,0.1-6.2,0.1c-30.1-0.1-60.3-0.2-90.4-0.2c-9.7,0-9.2-1-9.2,8.9
			c-0.1,37-0.2,74-0.3,111c0,1.7,0,3.3-0.1,5c-0.1,1.6-1.2,2.6-2.9,2.7c-1,0.1-2.1,0.1-3.1,0.1c-18.5,0-37-0.1-55.5-0.1
			c-1.2,0-2.5-0.1-3.7-0.2c-0.7-0.1-1.5-0.9-1.6-1.7c-0.1-0.8-0.3-1.6-0.3-2.5c0-2.1,0-4.2,0-6.2
			C1450.6,351,1450.7,300.5,1450.9,250C1450.9,250,1450.9,250,1450.9,250z"/>
		<path class="st0" d="M1191.9,294.9c0.1-35.1,0.2-70.2,0.3-105.3c0-2.5,0.2-5,0.3-7.5c0-0.7,0.9-1.5,1.6-1.7
			c0.6-0.1,1.2-0.3,1.8-0.3c1.5-0.1,2.9-0.1,4.4-0.1c13.7,0,27.4,0,41.1,0.1c1.5,0,2.9,0,4.4,0.1c1.6,0.1,2.6,1.1,2.7,2.8
			c0.1,5.4,0.1,10.8,0.1,16.2c0,1.7,0.1,3.3,0.3,5c0,0.2,0.5,0.5,0.9,0.6c0.1,0.1,0.4-0.1,0.6-0.2c0.2-0.1,0.3-0.3,0.4-0.5
			c3.8-7,9.7-11.8,16.5-15.7c6.7-3.8,13.9-6.4,21.4-8.4c7.8-2,15.8-3.3,23.9-4.1c8.7-0.9,17.4-1,26.1-0.7c8.1,0.3,16.1,1.3,24,3.5
			c4.8,1.3,9.5,3,14,5.2c11.9,5.9,21.1,14.6,27.4,26.3c4.5,8.3,7.2,17.2,8.8,26.5c1.4,8.2,1.7,16.5,1.9,24.8c0.1,4.4,0.1,8.7,0,13.1
			c-0.1,42.2-0.2,84.3-0.3,126.5c0,2.7-0.1,5.4-0.3,8.1c-0.1,1.7-1.1,2.5-2.9,2.6c-0.8,0-1.7,0.1-2.5,0.1c-15.8,0-31.6-0.1-47.4-0.1
			c-1.2,0-2.5-0.1-3.7-0.3c-0.5-0.1-1-0.7-1.3-1.2c-0.3-0.5-0.4-1.2-0.4-1.8c-0.1-2.1-0.1-4.2-0.1-6.2c0.1-41.8,0.2-83.5,0.3-125.3
			c0-5.8-0.3-11.6-0.8-17.4c-0.5-5.2-1.6-10.3-3.7-15.1c-3.5-8.3-9.6-14-18.3-16.5c-2.4-0.7-4.8-1.4-7.3-1.6
			c-14.4-1.4-28.2,0.8-40.9,8c-12.2,6.8-21.2,16.6-26.9,29.3c-4.8,10.7-7.5,22-7.8,33.8c-0.1,2.5,0,5,0,7.5
			c-0.1,32.6-0.2,65.2-0.3,97.8c0,2.3-0.2,4.6-0.3,6.8c0,0.7-0.9,1.5-1.7,1.6c-1,0.1-2.1,0.2-3.1,0.2c-16,0-32-0.1-48-0.1
			c-0.8,0-1.7,0-2.5-0.1c-1.6-0.1-2.6-1.1-2.7-2.9c-0.1-2.1-0.1-4.2-0.1-6.2C1191.7,366.3,1191.8,330.6,1191.9,294.9z"/>
		<path class="st0" d="M1071.6,291.6c-0.4,15.9-2.4,30.3-7.7,44c-10.9,27.7-29.7,48.2-56.2,61.5c-12.5,6.3-25.8,10.4-39.7,12.3
			c-11.8,1.6-23.6,1.8-35.4,0.6c-18.3-1.9-35.3-7.5-51.1-16.7c-25.2-14.6-42.2-35.8-51.2-63.5c-4-12.4-6-25-5.8-38
			c0.3-17.9,3.6-35.1,11.6-51.2c13.2-26.6,33.7-45.5,61.2-56.7c11.6-4.8,23.6-7.7,36.1-9c21.7-2.2,42.7,0.4,63.1,8
			c19.7,7.4,36.2,19.4,49.6,35.6c11.2,13.5,18.4,29,22.5,46C1070.6,273.8,1071.3,283.3,1071.6,291.6z M1015,295.1
			c0-7.9-0.3-13.7-1.5-19.4c-2.9-12.9-8.5-24.2-17.7-33.8c-16.1-16.9-41.4-24.8-66.5-17.6c-12.3,3.6-23,9.7-31.2,19.6
			c-12,14.3-17.6,30.9-17.5,49.5c0,8.1,1.6,16.1,4.1,23.9c5.9,18.2,17.7,31.2,34.7,39.7c9.3,4.6,19.2,6.6,29.6,6.2
			c5.4-0.2,10.8-0.9,16-2.3c12.8-3.2,23.8-9.6,32.5-19.7c5.9-6.8,10.4-14.5,13.4-23C1013.9,310.1,1015.2,301.7,1015,295.1z"/>
		<path class="st0" d="M1733.1,223.8c-0.1,41.1-0.2,82.3-0.3,123.4c0,2.5,0.1,5,0.2,7.5c0,0.7,0.9,1.6,1.6,1.6
			c1.7,0.1,3.3,0.2,5,0.2c8.1,0,16.2,0.1,24.3,0.1c31,0.1,61.9,0.1,92.9,0.2c7.5,0,7.2-0.5,7.2,7c0,14.1-0.1,28.3-0.1,42.4
			c0,1.7-0.2,3.3-0.3,5c-0.1,0.7-0.9,1.5-1.7,1.6c-0.6,0.1-1.2,0.2-1.8,0.2c-1.5,0-2.9,0-4.4,0c-61.3-0.1-122.6-0.3-183.9-0.5
			c-1.9,0-3.7-0.1-5.6-0.3c-0.7,0-1.6-0.9-1.7-1.6c-0.1-0.6-0.3-1.2-0.3-1.8c0-1.5,0-2.9,0-4.4c0.2-102.2,0.5-204.5,0.8-306.7
			c0-2.1,0.1-4.1,0.2-6.2c0-0.8,0.8-1.6,1.5-1.7c1-0.1,2.1-0.3,3.1-0.3c19.7,0,39.5,0.1,59.2,0.1c0.8,0,1.6,0.1,2.5,0.2
			c0.7,0.1,1.5,1,1.6,1.7c0.1,0.8,0.2,1.6,0.3,2.5c0,1.9,0,3.7,0,5.6C1733.3,141.1,1733.2,182.4,1733.1,223.8z"/>
		<path class="st0" d="M1156.1,301.8c-0.2,32.9-0.3,66.5-0.5,100.1c0,2.1-0.1,4.2-0.1,6.2c-0.1,1.7-0.9,2.6-2.7,2.7
			c-1.9,0.2-3.7,0.3-5.6,0.3c-15.2,0-30.3,0-45.5,0c-1.2,0-2.5-0.1-3.7-0.4c-0.5-0.1-1-0.7-1.2-1.3c-0.3-0.5-0.4-1.2-0.4-1.8
			c-0.1-1.9,0-3.7,0-5.6c0.2-67.1,0.3-134.1,0.5-201.2c0-2.1,0-4.2,0.1-6.2c0.1-1.6,1.1-2.5,2.8-2.6c0.8,0,1.7,0,2.5,0
			c16.2,0,32.4,0.1,48.6,0.1c1.2,0,2.5,0.1,3.7,0.3c0.3,0.1,0.7,0.5,0.9,0.8c0.2,0.6,0.3,1.2,0.3,1.8c0.1,2.5,0.1,5,0.1,7.5
			C1156,235.4,1156.1,268.2,1156.1,301.8z"/>
		<path class="st0" d="M1156.3,112.7c0.2,17.2-14.1,33.1-33.6,32.9c-19.4-0.2-33.1-16.5-32.9-33.7c0.2-16.9,14-33,33.7-32.8
			C1142.7,79.3,1156.9,95.5,1156.3,112.7z"/>
	</g>
	<g>
		<path class="st0" d="M2460,368.3c12.7,0,22.6,9.9,22.6,22.6c0,12.2-9.9,22.6-22.6,22.6c-13.1,0-22.6-10.4-22.6-22.6
			C2437.4,378.2,2446.8,368.3,2460,368.3z"/>
		<path class="st0" d="M2506.9,92.2h26.2v183.9c0,80.4,42,113,98.1,113s98.1-32.5,98.1-113V92.2h26.2v186.2
			c0,89.9-50.6,136-124.3,136s-124.3-46.1-124.3-136V92.2z"/>
		<path class="st0" d="M2900.5,229.1c48.8,14.5,96.7,36.6,96.7,94c0,55.1-39.8,91.3-101.7,91.3c-45.6,0-77.7-18.5-104.4-50.6
			l19.9-17.2c19.4,23.5,44.7,42.5,84.5,42.5c47.4,0,75-26.7,75-66c0-38.9-34.8-55.6-77.7-67.8c-49.7-14-92.2-35.2-92.2-89
			c0-45.2,36.6-80,91.3-80c37.5,0,62.8,12.2,89.9,36.6l-19,17.6c-20.8-18.5-40.7-28.9-70.9-28.9c-37.1,0-64.6,20.8-64.6,54.2
			C2827.3,202,2858.5,216.9,2900.5,229.1z"/>
	</g>
</g>
</svg>
